<?xml version="1.0" standalone="no"?><!DOCTYPE svg PUBLIC "-//W3C//DTD SVG 1.1//EN" "http://www.w3.org/Graphics/SVG/1.1/DTD/svg11.dtd"><svg t="1592101985708" class="icon" viewBox="0 0 1123 1024" version="1.1" xmlns="http://www.w3.org/2000/svg" p-id="1615" xmlns:xlink="http://www.w3.org/1999/xlink" width="70.1875" height="64"><defs><style type="text/css"></style></defs><path d="M247.774884 234.17337S138.258935 169.6644 78.999963 209.420382s-58.507973-17.251992-48.756977 57.757973c9.750995 75.009965 68.259968 22.502989 49.506977 67.509968s142.519933-6.750997 102.764951-3.749998c-39.755981 2.249999-66.759969 45.004979-121.517943 48.755977-54.006975 3.749998 37.505982 41.255981 61.509972 88.511959 24.001989 48.006977 63.75797 63.75997 138.768935-0.75s-4.500998-109.514949-4.500998-109.514949l-9.000996-123.767942z" fill="#FFFFFE" p-id="1616"></path><path d="M177.264917 519.214237c-3.749998 0-8.250996-0.75-12.001994-1.5-21.00299-4.500998-37.504982-19.502991-51.006977-45.756978C104.504951 453.204268 81.999962 435.202276 63.99897 420.200283c-20.252991-16.502992-33.004985-26.253988-29.253986-38.255982 3.749998-11.250995 18.751991-12.000994 24.752988-12.751994 12.751994-0.75 23.252989-3.749998 33.754984-8.249996-7.500996-0.75-13.501994-3.000999-18.002991-6.001997-3.749998-2.999999-10.500995-10.500995-4.499998-24.752989 1.499999-4.499998 2.249999-6.750997 2.999998-8.250996-1.499999 0-2.999999-0.75-4.499997-0.75-14.251993-1.499999-41.255981-5.250998-48.006978-54.007974-1.499999-9.000996-2.249999-16.501992-2.999999-21.75299-2.249999-16.501992-3.000999-21.75299 1.5-26.253988 3.749998-4.499998 8.999996-3.749998 12.750994-3.749998 6.750997 0.75 18.752991 1.499999 41.25598-14.251993 63.75997-42.75598 174.024918 21.75299 178.524917 24.752988l4.500998 2.249999 9.750995 123.767942c9.751995 6.750997 33.754984 25.503988 36.755983 54.007975 2.249999 23.252989-9.751995 45.755979-35.254984 67.509968-36.005983 31.503985-65.259969 45.755979-90.762957 45.755979zM55.747974 389.445297c4.499998 4.499998 13.501994 12.001994 20.25299 17.252992 19.501991 15.751993 43.50598 35.254983 54.756975 57.757973 10.501995 21.00299 23.252989 33.004985 38.255982 36.004983 21.75299 4.499998 51.006976-9.000996 86.261959-39.755981 21.00299-18.001992 30.753986-35.254983 28.503987-51.756976-2.249999-25.503988-31.504985-42.00598-31.504985-42.75598l-3.749998-2.999998-9.751996-123.767942c-20.251991-10.500995-107.26495-54.006975-154.520927-22.50299-24.003989 16.501992-39.755981 18.002992-48.756978 17.251992 0 2.249999 0.75 5.250998 1.5 8.251996 0.75 5.999997 2.249999 12.750994 2.999998 22.50299 4.500998 34.504984 18.002992 36.004983 31.504985 37.504982 6.749997 0.75 15.001993 1.499999 19.502991 9.000996 4.499998 7.500996 1.499999 17.252992-2.249999 26.253988-0.75 2.249999-0.75 2.999999-0.749999 2.999998 1.499999 1.499999 12.750994 5.250998 45.005979-0.749999 15.751993-9.750995 30.753986-18.001992 49.506976-18.751992 3.749998 0 12.750994-0.75 15.751993 6.749997 1.499999 3.750998 0.75 9.001996-4.499998 12.751994s-28.504987 12.001994-53.257975 17.252992c-0.75 0.75-2.249999 1.499999-2.999998 2.249999-20.253991 12.751994-42.75698 26.253988-74.260966 29.253986h-7.500996z" fill="#545971" p-id="1617"></path><path d="M978.377541 460.705264c0 198.777907-168.023921 360.050831-375.052824 360.050831s-375.052824-161.272924-375.052824-360.049831 168.023921-360.050831 375.052824-360.050831 375.052824 161.271924 375.052824 360.049831" fill="#FFE04A" p-id="1618"></path><path d="M603.324717 839.509086c-216.779898 0-393.805815-169.523921-393.805815-378.803822S386.543819 82.652441 603.324717 82.652441 997.129533 252.176362 997.129533 461.455264 820.854615 839.510086 603.324717 839.510086z m0-735.103655c-204.779904 0-371.302826 159.772925-371.302826 356.299833s166.523922 357.049833 371.302826 357.049833 372.051826-159.771925 372.051826-356.299833-167.272922-357.049833-372.051826-357.049833z" fill="#545971" p-id="1619"></path><path d="M603.324717 839.509086c-216.779898 0-393.805815-169.523921-393.805815-378.803822S386.543819 82.652441 603.324717 82.652441 997.129533 252.176362 997.129533 461.455264 820.854615 839.510086 603.324717 839.510086z m0-735.103655c-204.779904 0-371.302826 159.772925-371.302826 356.299833s166.523922 357.049833 371.302826 357.049833 372.051826-159.771925 372.051826-356.299833-167.272922-357.049833-372.051826-357.049833z" fill="#545971" p-id="1620"></path><path d="M391.044817 608.476195c-93.012956-134.268937-132.018938-279.039869-81.011962-396.805814-101.263953 126.767941-109.514949 314.294853-8.999996 459.064785 100.512953 144.769932 279.037869 202.527905 432.809797 152.270928-127.51794 6.750997-249.784883-80.259962-342.797839-214.529899" fill="#FFD05A" p-id="1621"></path><path d="M815.604618 745.74513c0-41.254981 8.249996-173.273919 8.249996-173.273918 0-4.499998-2.999999-9.000996-7.499997-9.000996H557.567739c-3.749998 0-7.499996 3.749998-7.499997 9.000996v148.52093c0 12.751994 0 63.00897 15.000993 97.513954 15.752993 35.254983 257.286879-39.755981 250.535883-72.759966z" fill="#545971" p-id="1622"></path><path d="M784.099632 592.724202v138.769935c0 10.499995-9.000996 19.501991-20.25299 19.501991h-147.019931c-11.251995 0-20.252991-9.000996-20.252991-19.502991v-138.769935H784.099632z" fill="#FFE04A" p-id="1623"></path><path d="M749.594649 778.000115c0 14.251993-12.000994 26.253988-26.252988 26.253988h-47.256978c-14.251993 0-26.253988-12.001994-26.253988-26.253988l9.001996-64.509969c0-14.250993 12.000994-26.252988 26.252988-26.252988h29.253986c14.251993 0 26.253988 12.001994 26.253988 26.253988L749.594649 778.000115z m-50.256977-123.016942c-43.50598 0-69.759967-18.752991-71.259966-19.502991-5.249998-3.749998-5.999997-10.501995-2.249999-15.751992 3.749998-5.250998 10.500995-6.000997 15.001993-2.249999 0 0 22.502989 15.001993 57.757973 15.001993s53.257975-13.501994 53.257975-13.501994c4.499998-3.749998 12.000994-2.999999 15.751992 2.249999 3.749998 4.499998 2.999999 11.251995-1.499999 15.751992-0.75 0.75-22.502989 18.002992-66.759969 18.002992z" fill="#545971" p-id="1624"></path><path d="M404.54681 360.941311c0 63.75997 51.756976 115.516946 115.515946 115.516946S635.578702 424.700281 635.578702 360.940311H404.54681z" fill="#E2C074" p-id="1625"></path><path d="M404.54681 330.937325c0 63.75897 51.756976 115.515946 115.515946 115.515946s115.515946-51.756976 115.515946-115.515946H404.54681z" fill="#FFFFFF" p-id="1626"></path><path d="M519.312757 453.954267c-67.509968 0-123.016942-54.756974-123.016943-123.016942 0-4.499998 2.999999-7.500996 7.499997-7.500997H634.829702c4.499998 0 7.500996 2.999999 7.500997 7.500997a122.610943 122.610943 0 0 1-123.016942 123.016942zM412.047807 338.438321c3.749998 56.257974 50.256976 100.513953 107.26495 100.513953s104.264951-44.255979 108.014949-100.513953h-215.279899z" fill="#545971" p-id="1627"></path><path d="M543.315745 353.440314a25.503988 18.752991 0 1 0 51.006976 0 25.503988 18.752991 0 1 0-51.006976 0z" fill="#545971" p-id="1628"></path><path d="M727.091659 360.941311c0 52.507975 42.75598 94.513956 94.512956 94.513956 52.507975 0 94.513956-42.75598 94.513956-94.513956H727.091659z" fill="#E2C074" p-id="1629"></path><path d="M727.091659 336.188322c0 52.506975 42.75598 94.512956 94.512956 94.512956 52.507975 0 94.513956-42.75598 94.513956-94.512956H727.091659z" fill="#FFFFFF" p-id="1630"></path><path d="M822.355615 438.202275c-56.257974 0-102.014952-45.755979-102.014953-102.013953 0-4.499998 2.999999-7.500996 7.500997-7.500996H917.61957c4.499998 0 7.500996 2.999999 7.500996 7.499996-0.75 56.258974-46.505978 102.014952-102.763951 102.014953z m-87.01296-94.512956c3.749998 44.255979 41.255981 79.510963 87.01296 79.510963s83.260961-35.254983 87.011959-79.510963H735.342655z" fill="#545971" p-id="1631"></path><path d="M844.858604 353.440314a21.00299 15.751993 0 1 0 42.00598 0 21.00299 15.751993 0 1 0-42.00598 0z" fill="#545971" p-id="1632"></path><path d="M965.625547 295.682341c-278.28987-108.014949-510.821761-75.759964-735.853655 29.253987-7.499996-5.249998 25.503988-309.042855 341.29784-315.793852 315.044852-6.750997 413.307806 286.539866 394.555815 286.539865z" fill="#FFFFFE" p-id="1633"></path><path d="M229.021893 335.438323l-4.499998-2.999999c-14.252993-9.751995 6.749997-78.011963 7.499996-81.011962C254.525881 177.916397 331.786844 5.390477 570.319733 0.14048 793.100628-5.109518 903.366577 138.160415 940.871559 200.420386c23.253989 38.254982 42.00598 85.51196 34.504984 99.763953-2.249999 3.749998-5.249998 5.999997-9.750996 5.999997h-1.499999l-1.499999-0.749999c-248.285884-96.012955-480.067775-87.011959-728.352659 28.503986l-5.249997 1.5z m352.549834-316.544852H571.069732C460.804784 21.14347 373.791825 60.150452 313.033853 135.910416c-54.757974 67.509968-71.259967 145.519932-74.259965 174.773918 244.533885-111.014948 474.065778-120.016944 718.599663-27.753987-5.249998-21.75299-27.002987-75.759964-74.259965-130.517938-53.256975-61.508971-148.51993-133.518937-301.541859-133.518938z" fill="#545971" p-id="1634"></path><path d="M943.872558 247.675364c-2.249999 0-4.499998-0.75-6.750997-2.249999-82.511961-62.258971-150.770929-77.259964-151.521929-77.259964-5.999997-1.500999-9.750995-7.501996-8.249996-12.752994 1.499999-5.999997 6.749997-9.750995 12.750994-8.249996 2.999999 0.75 73.509966 15.750993 160.522924 81.009962 5.249998 3.750998 5.999997 10.501995 2.249999 15.752993-2.249999 2.249999-5.249998 3.749998-9.000995 3.749998z m-707.349669 28.503987c-2.999999 0-5.999997-0.75-7.499996-2.999999-4.501998-4.499998-4.501998-11.251995 0-15.751993 74.259965-73.509966 183.024914-87.762959 188.275911-88.512958 5.999997-0.75 11.250995 3.749998 12.000995 9.751995 0.75 5.999997-3.749998 11.250995-9.750996 12.000995-0.75 0-106.51495 14.251993-175.524917 81.761961-2.249999 2.249999-4.499998 3.749998-7.499997 3.749999z" fill="#545971" p-id="1635"></path><path d="M958.874551 750.996128c39.004982 27.753987 57.007973 136.519936 39.004981 185.275913-18.001992 48.756977-207.028903 73.509966-207.028903 73.509966s-75.009965 18.752991-89.261958-98.262954C686.585678 794.502108 756.345645 779.500115 756.345645 779.500115s162.772924-56.257974 202.528906-28.503987z" fill="#6274B2" p-id="1636"></path><path d="M822.355615 892.016062c8.999996 85.51196-30.004986 117.766945-30.004986 117.766945s-75.009965 18.751991-89.261959-98.263954C688.086677 794.502108 742.843652 782.500113 757.846645 779.500115c14.251993-3.749998 54.756974 27.003987 64.50897 112.515947z" fill="#545971" p-id="1637"></path><path d="M814.103618 886.015065c2.249999-0.75 4.500998-3.749998 7.500997-4.499998 5.250998 23.252989 2.249999 78.009963-8.999996 99.013953-1.500999 0-20.253991-5.250998-17.252992-15.752992" fill="#E2C137" p-id="1638"></path><path d="M802.852624 856.761078c2.249999-0.75 7.499996-8.250996 9.750995-9.750995 9.000996 22.502989 15.001993 76.509964 6.750997 99.013954-1.499999 0-21.00299-1.499999-19.502991-12.751994" fill="#E2C137" p-id="1639"></path><path d="M817.104617 948.274035c12.001994-25.503988 2.999999-72.009966-20.252991-102.013952-70.509967-107.26495-282.789867-12.751994-235.532889 56.257974 0 0-23.252989 46.505978 21.00299 58.507973 0 0-23.252989 40.504981 20.252991 49.506976 47.255978 9.000996 30.003986-47.256978 103.513951-57.007973 27.003987 9.000996 72.009966 42.00598 111.015948-5.250998m-256.53588-42.00598c13.501994-24.752988 40.504981-55.507974 85.51196-50.256976m-66.009969 108.764949c-4.499998 15.752993 24.003989-64.50897 85.51296-56.257974" fill="#FFE04A" p-id="1640"></path><path d="M348.288837 763.748122c-71.259967 27.753987-103.514951 136.519936-71.259967 185.275913 32.253985 48.756977 377.302823 73.509966 377.302823 73.509966s93.012956 21.00299 120.016944-96.012955C801.352624 809.504101 718.089663 791.500109 718.089663 791.500109s-297.79186-55.506974-369.801826-27.752987z" fill="#6274B2" p-id="1641"></path></svg>