<?xml version="1.0" standalone="no"?><!DOCTYPE svg PUBLIC "-//W3C//DTD SVG 1.1//EN" "http://www.w3.org/Graphics/SVG/1.1/DTD/svg11.dtd"><svg t="1588561061217" class="icon" viewBox="0 0 1024 1024" version="1.1" xmlns="http://www.w3.org/2000/svg" p-id="4240" xmlns:xlink="http://www.w3.org/1999/xlink" width="200" height="200"><defs><style type="text/css"></style></defs><path d="M344.3 928.4H832c30.8 0 55.7-24.7 55.7-55.4v-69.3c23.1 0 41.8-18.6 41.8-41.6V429.6c0-30.6-25-55.4-55.7-55.4H655.3c1.6-50.1-1.2-148.7-42.8-207-27.5-38.5-76.6-64.6-76.6-64.6-28.8-10.7-70.8 5.4-70.8 36 0 0 14.4 106.4-24 171.5-16.8 28.3-37.2 49.3-55 64.1H149.3c-30.8 0-55.8 24.8-55.8 55.4V873c0 30.7 24.9 55.4 55.8 55.4h195z m0-498.8V873H197.5c-26.7 0-48.3-19.8-48.3-44.4V473.9c0-24.5 21.6-44.3 48.3-44.3h146.8z m376.2 110.8c0 15.3 12.5 27.7 27.9 27.7h125.4v69.4H748.4c-15.4 0-27.9 12.3-27.9 27.8 0 15.2 12.5 27.7 27.9 27.7h125.4v55.5H748.4c-15.4 0-27.9 12.3-27.9 27.6s12.5 27.8 27.9 27.8H832v24.9c0 24.7-21.7 44.5-48.4 44.5H400V429.4c7.1-4.5 71.8-64.4 78.4-74.3 40.9-61.5 41.8-165.4 41.8-165.4 0-30.6-3.6-30.7 25.3-20 0 0 54.6 84 49.4 204.5-0.5 10.4-0.1 28.3 5 38.1 6.6 12.5 13.4 17.3 44.1 17.3h181.4c26.7 0 48.3 19.9 48.3 44.3v38.9H748.3c-15.3-0.2-27.8 12.4-27.8 27.6zM218.9 762c0 15.4 12.5 27.8 27.9 27.8 15.4 0 27.9-12.3 27.9-27.8 0-15.3-12.4-27.7-27.9-27.7-15.4 0.1-27.9 12.4-27.9 27.7z m0 0" p-id="4241"></path></svg>