<?xml version="1.0" standalone="no"?><!DOCTYPE svg PUBLIC "-//W3C//DTD SVG 1.1//EN" "http://www.w3.org/Graphics/SVG/1.1/DTD/svg11.dtd"><svg t="1588561105389" class="icon" viewBox="0 0 1024 1024" version="1.1" xmlns="http://www.w3.org/2000/svg" p-id="6127" xmlns:xlink="http://www.w3.org/1999/xlink" width="200" height="200"><defs><style type="text/css"></style></defs><path d="M502.295987 784.079722c2.943029 3.496637 7.693216 5.978155 16.387225 5.978155l0.407276 0c10.656711 0 14.32117-3.916193 17.651009-8.091282 40.948621-51.219545 178.542372-226.799446 230.147704-322.44276 21.095457-39.090297 29.696346-73.78447 29.696346-119.827109 0-152.040788-124.661208-275.67562-277.902334-275.67562S240.781902 187.091072 240.781902 338.202699c0 39.904849 9.311063 81.355913 26.920116 119.371738C314.255287 558.061059 482.829634 760.864998 502.295987 784.079722zM518.684236 106.987686c129.661082 0 235.147578 104.442724 235.147578 232.810347 0 38.839587-6.888897 66.730821-24.571628 99.464339-43.339064 80.352049-156.215878 228.238214-202.727191 288.089347l-8.256034 10.626012-8.486278-10.437723c-49.132001-60.436464-167.30033-209.407334-203.301266-287.107997-15.020088-32.43062-22.952758-67.638493-22.952758-101.812827C283.535635 208.727859 386.819976 106.987686 518.684236 106.987686z" p-id="6128"></path><path d="M760.334925 626.718765c-2.547009-1.01205-5.208629-1.523703-7.912204-1.523703-8.819876 0-16.617469 5.27105-19.87363 13.464663-2.119267 5.302773-2.035356 11.105942 0.208754 16.356526 2.254344 5.240351 6.4192 9.289574 11.721973 11.408841 70.478168 28.098965 110.893646 66.584488 110.893646 105.590873 0 69.642127-135.287219 144.20124-336.689229 144.20124S181.995007 841.658092 181.995007 772.015965c0-37.775348 38.391379-75.42483 105.319697-103.304807 5.27105-2.202155 9.373485-6.314823 11.544941-11.597129 2.181689-5.281283 2.171456-11.085476-0.020466-16.356526-3.340071-7.995091-11.095709-13.173021-19.769252-13.173021-2.807952 0-5.563716 0.553609-8.18338 1.64957-84.892459 35.364439-131.644249 86.072331-131.644249 142.781914 0 106.582457 163.125241 186.955996 379.442962 186.955996S898.127198 878.598422 898.127198 772.015965C898.127198 714.606441 847.899236 661.644205 760.334925 626.718765z" p-id="6129"></path><path d="M518.684236 424.544159c47.148833 0 85.508489-38.359656 85.508489-85.508489s-38.359656-85.508489-85.508489-85.508489-85.508489 38.359656-85.508489 85.508489S471.535403 424.544159 518.684236 424.544159z" p-id="6130"></path></svg>