<?xml version="1.0" standalone="no"?><!DOCTYPE svg PUBLIC "-//W3C//DTD SVG 1.1//EN" "http://www.w3.org/Graphics/SVG/1.1/DTD/svg11.dtd"><svg t="1588559886175" class="icon" viewBox="0 0 1024 1024" version="1.1" xmlns="http://www.w3.org/2000/svg" p-id="2289" xmlns:xlink="http://www.w3.org/1999/xlink" width="200" height="200"><defs><style type="text/css"></style></defs><path d="M768.35456 416a256 256 0 1 0-512 0 192 192 0 1 0 0 384v64a256 256 0 0 1-58.88-505.216 320.128 320.128 0 0 1 629.76 0A256.128 256.128 0 0 1 768.35456 864v-64a192 192 0 0 0 0-384z m-512 384h128v64H256.35456v-64z m384 0h128v64h-128v-64z" fill="#333333" p-id="2290"></path><path d="M539.04256 589.184v333.056a32.448 32.448 0 0 1-32 32.192 32.448 32.448 0 0 1-32-32.192V589.184l-36.096 36.096a32.192 32.192 0 0 1-45.056-0.192 31.616 31.616 0 0 1-0.192-45.056l90.88-90.88a31.36 31.36 0 0 1 22.528-9.152 30.08 30.08 0 0 1 22.4 9.088l90.88 90.944a32.192 32.192 0 0 1-0.192 45.056 31.616 31.616 0 0 1-45.056 0.192l-36.096-36.096z" fill="#333333" p-id="2291"></path></svg>