<?xml version="1.0" standalone="no"?><!DOCTYPE svg PUBLIC "-//W3C//DTD SVG 1.1//EN" "http://www.w3.org/Graphics/SVG/1.1/DTD/svg11.dtd"><svg t="1588648399271" class="icon" viewBox="0 0 1024 1024" version="1.1" xmlns="http://www.w3.org/2000/svg" p-id="4673" xmlns:xlink="http://www.w3.org/1999/xlink" width="200" height="200"><defs><style type="text/css"></style></defs><path d="M509 174.5L614.2 381l9.5 18.7 20.8 2.8 229.8 30.4-163.8 163.9-14.9 14.9 3.8 20.7 42.1 227.9-206.4-105.2-18.7-9.5-18.5 10-203.8 110.5 36.2-228.9 3.3-20.8-15.2-14.5-168-159.6L379.3 406l20.8-3.3 9.1-19L509 174.5m-1.2-90.4L373 366.4l-309 49 226.8 215.5-48.9 309 275-149.1 278.8 142-56.8-307.6L960 403.9l-310.1-41L507.8 84.1z" fill="" p-id="4674"></path></svg>